# xmcd
#
# Track frame offsets:
#	150
#	15193
#	30178
#	44933
#	60550
#	74318
#	87055
#	104478
#	126273
#	140105
#
# Disc length: 2035
#
# Revision: 3
# Processed by: cddbd v1.5.1PL0 Copyright (c) Steve Scherf et al.
# Submitted via: dBpowerAMP V4.0
# Normalized: r1:TDELIM( - ),TSWAP
#
DISCID=8507f10a
DTITLE=Various Artist - Country Jukebox Greatest Hits
DYEAR=1900
DGENRE=Country
TTITLE0=Nitty Gritty Dirt Band - Fishin' In The Dark
TTITLE1=The Forester Sisters - Men
TTITLE2=Travis Tritt - If Hell Had A Jukebox
TTITLE3=Holly Dunn - Daddy's Hands
TTITLE4=Highway 101 - Whiskey, If You Were A Woman
TTITLE5=Hank Williams Jr.with Hank Williams Sr - There's A Tear In My Beer
TTITLE6=Emmylou Harris - Together Again
TTITLE7=Rodney Crowell - I Ain't Living Long Like This
TTITLE8=Dwight Yoakam - It Won't Hurt
TTITLE9=Deanna Cox - Texas Sidestep
EXTD=
EXTT0=
EXTT1=
EXTT2=
EXTT3=
EXTT4=
EXTT5=
EXTT6=
EXTT7=
EXTT8=
EXTT9=
PLAYORDER=
